<?xml version="1.0" encoding="UTF-8"?>
<svg version="1.1" xmlns="http://www.w3.org/2000/svg" width="236" height="214">
<path d="M0 0 C2.54174805 1.25244141 2.54174805 1.25244141 5.26171875 2.8515625 C6.28579834 3.44839844 7.30987793 4.04523437 8.36499023 4.66015625 C10.00963257 5.63275391 10.00963257 5.63275391 11.6875 6.625 C12.83820141 7.29889756 13.98933185 7.97206301 15.14086914 8.64453125 C16.93431773 9.6922679 18.72730055 10.7407505 20.5186615 11.79205322 C24.70211925 14.24712733 28.90027226 16.6751229 33.109375 19.0859375 C34.25446533 19.74255371 35.39955566 20.39916992 36.5793457 21.07568359 C38.75428591 22.32198521 40.92986409 23.56717442 43.10620117 24.81103516 C44.11142822 25.38901855 45.11665527 25.96700195 46.15234375 26.5625 C47.01851318 27.05878906 47.88468262 27.55507813 48.77709961 28.06640625 C49.84065674 28.70449219 50.90421387 29.34257812 52 30 C52.91224335 30.38163803 53.82448669 30.76327606 54.76437378 31.15647888 C58.14698367 32.79764521 60.43438769 34.23502232 63 37 C64.65572568 42.82938226 64.50350118 48.51462627 64.390625 54.53515625 C64.39295825 56.2595654 64.39885395 57.98397305 64.40814209 59.70835876 C64.41531788 63.31463914 64.38392906 66.91790453 64.32421875 70.52368164 C64.25027899 75.13758383 64.26569117 79.74596681 64.30911636 84.36008549 C64.33391114 87.91822129 64.31481549 91.47507715 64.28221893 95.03310966 C64.27121673 96.73347003 64.27293207 98.43396345 64.28778839 100.13429451 C64.3627526 113.34820302 64.3627526 113.34820302 61.11070251 117.2900238 C58.79676492 118.86354126 56.59001634 119.95526553 54 121 C53.01136963 121.60062256 52.02273926 122.20124512 51.00415039 122.82006836 C50.12750732 123.32159424 49.25086426 123.82312012 48.34765625 124.33984375 C47.33582275 124.92096924 46.32398926 125.50209473 45.28149414 126.10083008 C43.68809204 127.00998169 43.68809204 127.00998169 42.0625 127.9375 C40.35687477 128.91624242 38.65125232 129.89498972 36.94578552 130.87400818 C35.17275257 131.89127374 33.39895663 132.90719775 31.625 133.92285156 C26.1735307 137.04509024 20.72984704 140.18083538 15.287323 143.31863403 C13.58872617 144.29738813 11.8892186 145.2745611 10.18969727 146.25170898 C9.15901123 146.84540283 8.1283252 147.43909668 7.06640625 148.05078125 C6.15834229 148.57325439 5.25027832 149.09572754 4.31469727 149.6340332 C2.50873799 150.69977966 0.74478871 151.83680752 -1 153 C-9.22491071 152.4750057 -18.07968026 149.23300197 -24.23193359 143.72119141 C-30.6077946 133.90824653 -27.10070927 117.09176266 -26 106 C-22.49333444 107.09221982 -19.37816539 108.17369528 -16.30859375 110.19921875 C-15.67373047 110.60333984 -15.03886719 111.00746094 -14.38476562 111.42382812 C-13.07847261 112.27154285 -11.77641008 113.12580986 -10.47851562 113.98632812 C-6.84544299 116.3697965 -6.84544299 116.3697965 -2.65258789 116.81713867 C0.5373698 115.83446142 3.11888237 114.41426719 6 112.7265625 C7.7015625 111.7365625 7.7015625 111.7365625 9.4375 110.7265625 C10.62508032 110.02617785 11.81257963 109.3256558 13 108.625 C14.18712379 107.93164713 15.37462059 107.2389325 16.5625 106.546875 C22.69361518 102.97483823 22.69361518 102.97483823 28.75 99.27880859 C31 98 31 98 33 98 C36.19968387 73.80435519 36.19968387 73.80435519 29.75830078 51.68603516 C24.24251828 46.89306971 17.93336405 44.33926344 11.03564453 42.12255859 C7.03538309 40.6432919 3.77673041 38.43860693 0.33178711 35.95239258 C-2.04836158 34.72398335 -2.04836158 34.72398335 -4.90576172 35.62792969 C-8.10041917 37.04452862 -11.07931373 38.60938665 -14.09765625 40.37109375 C-15.22880859 41.02787109 -16.35996094 41.68464844 -17.52539062 42.36132812 C-18.70448445 43.05328767 -19.88352043 43.74534581 -21.0625 44.4375 C-22.24515168 45.12615109 -23.42809212 45.81430651 -24.61132812 46.50195312 C-27.74531007 48.3272786 -30.87582912 50.15793699 -34 52 C-34.87462387 52.2981662 -35.74924774 52.5963324 -36.65037537 52.90353394 C-39.17238532 54.73001967 -39.17238532 54.73001967 -39.428895 57.16441059 C-39.56703522 60.19810088 -39.53339125 63.19332224 -39.453125 66.22924805 C-39.4427269 67.38726425 -39.4323288 68.54528046 -39.4216156 69.73838806 C-39.39697065 72.25777477 -39.36146348 74.77707286 -39.3164978 77.29617882 C-39.24960795 81.2850981 -39.2189051 85.27329354 -39.20239258 89.26264954 C-39.14915293 100.60651686 -39.04856628 111.94918534 -38.86669922 123.29174805 C-38.76664948 129.55646432 -38.71347401 135.81981478 -38.71116829 142.08534843 C-38.7077695 145.39968411 -38.67233264 148.70883527 -38.59313965 152.02234459 C-38.12085549 172.1908133 -38.12085549 172.1908133 -41.24204445 176.85676765 C-44.66169653 180.11847232 -48.55242981 181.49204215 -53 183 C-55.03791979 184.13708924 -57.05655598 185.31030797 -59.04296875 186.53515625 C-62.19846943 188.35153544 -65.35829102 190.16024509 -68.51831055 191.96875 C-70.22241089 192.94521484 -70.22241089 192.94521484 -71.9609375 193.94140625 C-72.53409195 194.26972443 -73.1072464 194.5980426 -73.69776917 194.93630981 C-77.30871733 197.01067157 -80.89736955 199.11913611 -84.47227478 201.25498962 C-86.84356157 202.67095046 -89.22096615 204.07645893 -91.5987854 205.48141479 C-93.28368836 206.48287515 -94.9596939 207.49925649 -96.63549805 208.51586914 C-97.6594165 209.11906982 -98.68333496 209.72227051 -99.73828125 210.34375 C-101.08466675 211.15102539 -101.08466675 211.15102539 -102.45825195 211.97460938 C-105.57552728 213.23217891 -106.83932896 213.07289394 -110 212 C-111.93527142 211.04545333 -113.8329214 210.01290909 -115.69921875 208.9296875 C-117.3711731 207.96651611 -117.3711731 207.96651611 -119.0769043 206.98388672 C-120.28054567 206.28111194 -121.48407492 205.57814509 -122.6875 204.875 C-123.93168718 204.15448808 -125.17624004 203.43460726 -126.42114258 202.71533203 C-128.99626944 201.22634215 -131.56915279 199.733573 -134.140625 198.23828125 C-137.85550879 196.08037768 -141.58243761 193.94402789 -145.3125 191.8125 C-146.48095168 191.14352471 -147.64932861 190.47441882 -148.81762695 189.80517578 C-151.00541794 188.55206591 -153.1940115 187.30035582 -155.38354492 186.05029297 C-156.38490479 185.47424316 -157.38626465 184.89819336 -158.41796875 184.3046875 C-159.28188232 183.80952637 -160.1457959 183.31436523 -161.03588867 182.80419922 C-162.01404541 182.20881348 -162.99220215 181.61342773 -164 181 C-165.14012543 180.53921555 -165.14012543 180.53921555 -166.30328369 180.06912231 C-169.20996461 178.66398755 -170.93013094 177.49864681 -173 175 C-174.43682135 169.23858351 -174.36624274 163.5439025 -174.3359375 157.6328125 C-174.35217413 155.91175319 -174.37048689 154.19071233 -174.39077759 152.46969604 C-174.4220521 148.86635035 -174.41884338 145.26499255 -174.39306641 141.66162109 C-174.36419969 137.05677003 -174.43513536 132.45964404 -174.53401756 127.85598946 C-174.59676875 124.30205549 -174.59889175 120.74996253 -174.58385086 117.19558334 C-174.58523184 115.49949157 -174.6068444 113.80328477 -174.64957809 112.10773087 C-174.76642257 106.79096551 -174.65705592 102.08560852 -173 97 C-169.05835333 93.13142108 -165.06959044 91.20992851 -160 89 C-158.11705649 87.91933436 -156.24561169 86.81797274 -154.39453125 85.68359375 C-152.53502344 84.5995543 -150.674314 83.51757382 -148.8125 82.4375 C-147.30465942 81.56218628 -147.30465942 81.56218628 -145.76635742 80.66918945 C-143.62971597 79.42929617 -141.49274652 78.18996798 -139.35546875 76.95117188 C-136.44800104 75.26050817 -133.54608348 73.56102205 -130.64692688 71.85618591 C-128.27908675 70.46515272 -125.90783925 69.07999828 -123.53598022 67.6958313 C-121.84324758 66.70548904 -120.15461298 65.70815287 -118.46606445 64.71069336 C-117.4318335 64.10878174 -116.39760254 63.50687012 -115.33203125 62.88671875 C-113.96655151 62.08560669 -113.96655151 62.08560669 -112.57348633 61.26831055 C-109.90968351 59.95548865 -107.96516113 59.19289865 -105 59 C-102.50463867 59.98803711 -102.50463867 59.98803711 -99.91796875 61.52734375 C-98.65762817 62.26198853 -98.65762817 62.26198853 -97.37182617 63.01147461 C-96.32099854 63.64706299 -95.2701709 64.28265137 -94.1875 64.9375 C-90.825625 66.938125 -87.46375 68.93875 -84 71 C-84 82.55 -84 94.1 -84 106 C-90.72467986 103.75844005 -90.72467986 103.75844005 -93.69140625 101.80078125 C-94.32626953 101.39666016 -94.96113281 100.99253906 -95.61523438 100.57617188 C-96.92152739 99.72845715 -98.22358992 98.87419014 -99.52148438 98.01367188 C-103.16895723 95.62145374 -103.16895723 95.62145374 -107.37915039 95.19873047 C-110.39144034 96.11967463 -112.78427158 97.40929923 -115.4921875 99.01953125 C-116.52730469 99.62990234 -117.56242187 100.24027344 -118.62890625 100.86914062 C-120.23572266 101.83110352 -120.23572266 101.83110352 -121.875 102.8125 C-123.99730589 104.06916233 -126.11969949 105.32567655 -128.2421875 106.58203125 C-132.24663196 108.95830448 -132.24663196 108.95830448 -136.24707031 111.34130859 C-140.77235291 114 -140.77235291 114 -143 114 C-146.09002124 137.11393572 -146.09002124 137.11393572 -140.82659912 158.91033936 C-135.02172538 165.62464917 -126.23699502 168.95447629 -118.07714844 171.85888672 C-115.42733423 172.84152966 -113.25868629 173.90890338 -110.8828125 175.41015625 C-108.25677864 177.23555962 -108.25677864 177.23555962 -106.05737305 176.72241211 C-103.96165977 175.98653747 -102.13745829 175.11460714 -100.19921875 174.03125 C-99.46767578 173.62390625 -98.73613281 173.2165625 -97.98242188 172.796875 C-97.22509766 172.36890625 -96.46777344 171.9409375 -95.6875 171.5 C-94.61532227 170.90445313 -94.61532227 170.90445313 -93.52148438 170.296875 C-91.98797583 169.43800418 -90.47262213 168.54605232 -88.97537231 167.62542725 C-86 166 -86 166 -82.23690796 164.6729126 C-77.74222977 162.91431034 -73.908382 160.95910303 -71 157 C-68.69943126 149.72943191 -69.52737964 141.735248 -69.90128899 134.22226715 C-70.09229603 130.27747906 -70.18482911 126.33716825 -70.24501038 122.38885498 C-70.41260537 112.58737822 -70.72165552 102.7910153 -71.09985352 92.9954834 C-71.39356999 85.37723701 -71.63820339 77.76479959 -71.72892481 70.14107203 C-71.77242956 66.86117694 -71.87302209 63.59853088 -72.05277824 60.32291412 C-72.96269839 43.72187623 -72.96269839 43.72187623 -70 37 C-64.73879765 31.20182672 -57.74142619 28.07689698 -50.61812496 25.1200161 C-47.126334 23.62625161 -44.00115631 21.77798526 -40.76171875 19.80078125 C-37.64642312 18.00861562 -34.52835521 16.22137725 -31.40942383 14.43554688 C-26.48655104 11.61055781 -21.58337476 8.76900534 -16.75 5.79296875 C-15.57884644 5.07790161 -15.57884644 5.07790161 -14.3840332 4.34838867 C-12.96859816 3.47949374 -11.56020969 2.5989604 -10.16088867 1.7043457 C-6.23413037 -0.69605275 -4.38416678 -1.29680585 0 0 Z " fill="#6B01F4" transform="translate(173,1)"/>
<path d="M0 0 C0.66 0 1.32 0 2 0 C2.30410028 15.50720533 2.53312548 31.0141869 2.67355824 46.52367401 C2.74050845 53.72578273 2.83171853 60.92603589 2.98071289 68.12695312 C3.11056558 74.40576063 3.19421772 80.68322449 3.22315043 86.96333742 C3.2400603 90.28768745 3.28644819 93.6073126 3.37449074 96.9306488 C3.88927214 117.16878176 3.88927214 117.16878176 0.75885201 121.85995483 C-2.66078996 125.12303228 -6.5546891 126.48547181 -11 128 C-13.02998159 129.16399504 -15.03886994 130.36659733 -17.01171875 131.625 C-18.90293864 132.75118844 -20.79485812 133.87620295 -22.6875 135 C-23.66138672 135.58394531 -24.63527344 136.16789063 -25.63867188 136.76953125 C-26.56615234 137.31996094 -27.49363281 137.87039062 -28.44921875 138.4375 C-29.69191528 139.17806641 -29.69191528 139.17806641 -30.9597168 139.93359375 C-33 141 -33 141 -35 141 C-34.67 140.01 -34.34 139.02 -34 138 C-31.9375 137.3125 -31.9375 137.3125 -30 137 C-30 136.34 -30 135.68 -30 135 C-27 133 -27 133 -23 133 C-23 132.01 -23 131.02 -23 130 C-20.69 129.67 -18.38 129.34 -16 129 C-16 128.34 -16 127.68 -16 127 C-14.68 127 -13.36 127 -12 127 C-12 126.34 -12 125.68 -12 125 C-10.37750059 124.16180842 -8.75191503 123.3295884 -7.125 122.5 C-5.76761719 121.80390625 -5.76761719 121.80390625 -4.3828125 121.09375 C-2 120 -2 120 0 120 C0 80.4 0 40.8 0 0 Z " fill="#6619D0" transform="translate(131,56)"/>
<path d="M0 0 C0.33 0.66 0.66 1.32 1 2 C0.34 2 -0.32 2 -1 2 C-1.33 3.65 -1.66 5.3 -2 7 C-3.32 6.67 -4.64 6.34 -6 6 C-6 45.6 -6 85.2 -6 126 C-7.98 126.495 -7.98 126.495 -10 127 C-9.505 126.01 -9.505 126.01 -9 125 C-8.91243987 123.41452555 -8.8884812 121.82534694 -8.89561462 120.23747253 C-8.89738708 119.23225052 -8.89915955 118.2270285 -8.90098572 117.19134521 C-8.90779861 116.08430237 -8.91461151 114.97725952 -8.92163086 113.83666992 C-8.92774788 111.42636662 -8.93367453 109.01606284 -8.93943787 106.60575867 C-8.94411009 105.32275061 -8.94878231 104.03974255 -8.95359612 102.71785545 C-8.96489275 98.71309796 -8.96504529 94.70844999 -8.95936584 90.70368958 C-8.95844576 90.02798973 -8.95752568 89.35228988 -8.95657772 88.65611428 C-8.9536062 86.57477909 -8.95044116 84.49344426 -8.94726562 82.41210938 C-8.93446894 73.78684987 -8.93247723 65.16204489 -8.97583008 56.53686523 C-9.00733116 50.24870464 -9.01063257 43.96123628 -8.98107058 37.67305642 C-8.96651947 34.34512804 -8.97065843 31.01889948 -9.00047112 27.6910305 C-9.03179098 23.97674045 -9.01375543 20.26574685 -8.98413086 16.55151367 C-9.00511337 15.45054352 -9.02609589 14.34957336 -9.04771423 13.21524048 C-8.91815866 5.90555353 -8.91815866 5.90555353 -6.15332222 3.1786747 C-4.14315418 1.90745754 -2.20495014 0.88388427 0 0 Z " fill="#6420E0" transform="translate(111,33)"/>
<path d="M0 0 C-1.65 0.66 -3.3 1.32 -5 2 C-5.17919636 7.97881586 -5.271962 13.95064229 -5.28686523 19.93212891 C-5.30383816 21.96338356 -5.3438869 23.99458751 -5.40795898 26.02490234 C-6.23261741 36.90615223 -6.23261741 36.90615223 -2.6605835 46.73486328 C0.80983181 49.74452415 4.66600237 51.48712885 9 53 C6.45297384 54.27351308 5.5717055 53.80191925 2.875 53.0625 C2.15054688 52.86785156 1.42609375 52.67320312 0.6796875 52.47265625 C-0.15175781 52.23869141 -0.15175781 52.23869141 -1 52 C-1.33 50.68 -1.66 49.36 -2 48 C-3.98 47.67 -5.96 47.34 -8 47 C-8 44.13288417 -7.96323311 41.26753357 -7.92304993 38.40075684 C-7.88317143 35.26219736 -7.85860043 32.12358415 -7.83520508 28.98486328 C-7.82006783 27.32822998 -7.79955937 25.67163706 -7.77368164 24.01513672 C-7.73733142 21.62457486 -7.72028859 19.23453751 -7.70703125 16.84375 C-7.69154739 16.10306274 -7.67606354 15.36237549 -7.66011047 14.59924316 C-7.58677816 10.56042625 -7.58677816 10.56042625 -9.5378418 7.17773438 C-10.020354 6.78908203 -10.50286621 6.40042969 -11 6 C-10.6875 3.3125 -10.6875 3.3125 -10 1 C-3.71428571 -1.42857143 -3.71428571 -1.42857143 0 0 Z " fill="#6106E6" transform="translate(35,113)"/>
<path d="M0 0 C0.99 0.495 0.99 0.495 2 1 C1.67 11.89 1.34 22.78 1 34 C5.9870656 34.70775561 5.9870656 34.70775561 11 35 C11 35.99 11 36.98 11 38 C12.98 37.505 12.98 37.505 15 37 C15 37.66 15 38.32 15 39 C15.9590625 39.433125 15.9590625 39.433125 16.9375 39.875 C19 41 19 41 20 43 C21.89533342 43.46523063 21.89533342 43.46523063 24.0625 43.625 C26.0115625 43.810625 26.0115625 43.810625 28 44 C26.875 45.5625 26.875 45.5625 25 47 C16.71511016 46.33979784 7.99194387 43.29717011 1.76806641 37.72119141 C-4.6077946 27.90824653 -1.10070927 11.09176266 0 0 Z " fill="#5B16C6" transform="translate(147,107)"/>
<path d="M0 0 C4.44994586 0.88998917 6.58495643 1.7027287 10.3125 4 C11.19550781 4.53625 12.07851562 5.0725 12.98828125 5.625 C13.65214844 6.07875 14.31601563 6.5325 15 7 C15 7.33 15 7.66 15 8 C13.9275 8.28875 12.855 8.5775 11.75 8.875 C8.90599636 9.72820109 6.56491017 10.5636503 4 12 C3.67 11.01 3.34 10.02 3 9 C2.34 9 1.68 9 1 9 C1 15.93 1 22.86 1 30 C0.67 30 0.34 30 0 30 C0 20.1 0 10.2 0 0 Z " fill="#6108E2" transform="translate(148,108)"/>
<path d="M0 0 C-6.31096289 3.74245391 -12.62812575 7.47424145 -18.94970703 11.19873047 C-21.84436121 12.90809164 -24.73305281 14.62715399 -27.62109375 16.34765625 C-29.33048062 17.35719179 -31.0401043 18.36632651 -32.75 19.375 C-33.55284424 19.85686768 -34.35568848 20.33873535 -35.18286133 20.83520508 C-35.92173584 21.26857178 -36.66061035 21.70193848 -37.421875 22.1484375 C-38.39012207 22.72343994 -38.39012207 22.72343994 -39.37792969 23.31005859 C-39.91321289 23.53773926 -40.44849609 23.76541992 -41 24 C-41.66 23.67 -42.32 23.34 -43 23 C-41.3653955 19.730791 -38.28508407 19.26792719 -35 18 C-34.34 18 -33.68 18 -33 18 C-32.731875 17.38125 -32.46375 16.7625 -32.1875 16.125 C-30.66856125 13.40689907 -28.74132139 12.37066069 -26 11 C-25.34 11.33 -24.68 11.66 -24 12 C-24 11.34 -24 10.68 -24 10 C-22.35 9.67 -20.7 9.34 -19 9 C-19 8.34 -19 7.68 -19 7 C-18.45730469 6.81824219 -17.91460937 6.63648437 -17.35546875 6.44921875 C-16.64003906 6.19785156 -15.92460937 5.94648437 -15.1875 5.6875 C-14.47980469 5.44386719 -13.77210938 5.20023437 -13.04296875 4.94921875 C-10.83724491 3.92437957 -9.67872505 2.72917853 -8 1 C-2.49438202 -1.24719101 -2.49438202 -1.24719101 0 0 Z " fill="#5B11CE" transform="translate(235,117)"/>
<path d="M0 0 C0.66 0 1.32 0 2 0 C2.78737989 5.43862689 3.10282084 10.64994605 2.9140625 16.1484375 C2.89282318 16.8870401 2.87158386 17.6256427 2.84970093 18.3866272 C2.8038283 19.93118288 2.75493856 21.47565173 2.703125 23.02001953 C2.62451988 25.38947248 2.55770422 27.75905893 2.4921875 30.12890625 C2.44600652 31.6354381 2.39915585 33.14194961 2.3515625 34.6484375 C2.33171295 35.35672699 2.3118634 36.06501648 2.29141235 36.79476929 C2.11534912 41.76930177 2.11534912 41.76930177 1 44 C0.01 43.67 -0.98 43.34 -2 43 C-1.34 43 -0.68 43 0 43 C0 28.81 0 14.62 0 0 Z " fill="#5E11DA" transform="translate(206,56)"/>
<path d="M0 0 C0.33 0 0.66 0 1 0 C0.96221436 1.26070313 0.92442871 2.52140625 0.88549805 3.8203125 C0.76190582 8.52458945 0.72485949 13.22635324 0.71313477 17.93212891 C0.69616184 19.96338356 0.6561131 21.99458751 0.59204102 24.02490234 C-0.23261741 34.90615223 -0.23261741 34.90615223 3.3394165 44.73486328 C6.80983181 47.74452415 10.66600237 49.48712885 15 51 C12.45297384 52.27351308 11.5717055 51.80191925 8.875 51.0625 C8.15054688 50.86785156 7.42609375 50.67320312 6.6796875 50.47265625 C5.84824219 50.23869141 5.84824219 50.23869141 5 50 C4.67 48.68 4.34 47.36 4 46 C2.68 46 1.36 46 0 46 C0 30.82 0 15.64 0 0 Z " fill="#692ACE" transform="translate(29,115)"/>
<path d="M0 0 C-0.72590332 0.4031543 -1.45180664 0.80630859 -2.19970703 1.22167969 C-4.91811661 2.73301645 -7.63524856 4.2466192 -10.3515625 5.76171875 C-12.09539159 6.73350016 -13.84065285 7.70271016 -15.5859375 8.671875 C-17.24882813 9.6 -17.24882813 9.6 -18.9453125 10.546875 C-19.96125488 11.11245117 -20.97719727 11.67802734 -22.02392578 12.26074219 C-24.14752665 13.50180311 -26.22047871 14.83123704 -28.25341797 16.21582031 C-31 18 -31 18 -33 18 C-32.505 16.515 -32.505 16.515 -32 15 C-29.9375 14.3125 -29.9375 14.3125 -28 14 C-28 13.34 -28 12.68 -28 12 C-25 10 -25 10 -21 10 C-21 9.01 -21 8.02 -21 7 C-17.535 6.505 -17.535 6.505 -14 6 C-14 5.34 -14 4.68 -14 4 C-12.68 4 -11.36 4 -10 4 C-10 3.34 -10 2.68 -10 2 C-4.10714286 -1.34821429 -4.10714286 -1.34821429 0 0 Z " fill="#5A11CB" transform="translate(129,179)"/>
<path d="M0 0 C7.33333333 -0.36666667 7.33333333 -0.36666667 10.5 1.375 C12 3 12 3 12 5 C14.97 5.495 14.97 5.495 18 6 C18.33 7.32 18.66 8.64 19 10 C15.16292622 8.94480471 12.19491965 7.53768231 8.9375 5.3125 C5.96294675 3.37921821 5.96294675 3.37921821 2.5 2.9375 C-1.08792037 4.46236616 -4.56089252 6.16524043 -8 8 C-8 7.34 -8 6.68 -8 6 C-3.64705882 2 -3.64705882 2 0 2 C0 1.34 0 0.68 0 0 Z " fill="#5C0FD1" transform="translate(63,93)"/>
<path d="M0 0 C0.33 0.99 0.66 1.98 1 3 C1.598125 2.649375 2.19625 2.29875 2.8125 1.9375 C5 1 5 1 8 2 C4.95155832 3.87806181 1.88433063 5.72298654 -1.1875 7.5625 C-2.05181641 8.09552734 -2.91613281 8.62855469 -3.80664062 9.17773438 C-4.64775391 9.67724609 -5.48886719 10.17675781 -6.35546875 10.69140625 C-7.12528076 11.15748291 -7.89509277 11.62355957 -8.68823242 12.10375977 C-11.5262978 13.20403836 -13.12080184 12.83948779 -16 12 C-16 11.67 -16 11.34 -16 11 C-14.02 10.67 -12.04 10.34 -10 10 C-9.67 9.01 -9.34 8.02 -9 7 C-7.68 7 -6.36 7 -5 7 C-4.9175 6.401875 -4.835 5.80375 -4.75 5.1875 C-3.79544128 2.4033704 -2.42867729 1.56688858 0 0 Z " fill="#5F0CD4" transform="translate(79,201)"/>
<path d="M0 0 C4.27838518 1.51813668 7.96690756 3.70580967 11.81640625 6.07421875 C14.43273717 7.18346817 15.37988934 6.96726195 18 6 C19.0725 5.649375 20.145 5.29875 21.25 4.9375 C22.1575 4.628125 23.065 4.31875 24 4 C24 7 24 7 21.625 9.625 C19 12 19 12 17 13 C17 12.34 17 11.68 17 11 C16.01 10.67 15.02 10.34 14 10 C13.67 10.66 13.34 11.32 13 12 C11.35895684 10.35895684 9.74669214 8.72048787 8.1875 7 C5.66528134 4.69397151 3.09823137 3.40828698 0 2 C0 1.34 0 0.68 0 0 Z " fill="#5D0CD7" transform="translate(51,171)"/>
<path d="M0 0 C3.02878112 0.86214025 5.3224304 2.09095954 8.01879883 3.71508789 C9.48349609 4.59003906 9.48349609 4.59003906 10.9777832 5.48266602 C11.98518555 6.09432617 12.99258789 6.70598633 14.03051758 7.33618164 C15.05725586 7.95170898 16.08399414 8.56723633 17.1418457 9.20141602 C19.67122264 10.71904218 22.1963497 12.24329229 24.71801758 13.77368164 C23.72801758 14.26868164 23.72801758 14.26868164 22.71801758 14.77368164 C21.03593123 13.79984218 19.37063597 12.79673112 17.71801758 11.77368164 C15.52671224 11.0778871 15.52671224 11.0778871 13.71801758 10.77368164 C13.71801758 10.11368164 13.71801758 9.45368164 13.71801758 8.77368164 C12.48051758 8.71180664 11.24301758 8.64993164 9.96801758 8.58618164 C5.45781577 8.06486234 4.5050303 6.27992345 1.71801758 2.77368164 C-1.94998057 2.3559636 -1.94998057 2.3559636 -5.28198242 2.77368164 C-2.95151698 -0.29272026 -2.95151698 -0.29272026 0 0 Z " fill="#5B10D2" transform="translate(170.281982421875,0.226318359375)"/>
<path d="M0 0 C0.33 0.66 0.66 1.32 1 2 C0.34 2 -0.32 2 -1 2 C-1.33 3.65 -1.66 5.3 -2 7 C-3.32 6.67 -4.64 6.34 -6 6 C-6 19.53 -6 33.06 -6 47 C-6.33 47 -6.66 47 -7 47 C-7.34111629 41.11155611 -7.62850956 35.22382877 -7.86669922 29.33032227 C-7.95520203 27.32668987 -8.05827712 25.32364542 -8.17626953 23.3215332 C-8.34354694 20.43992963 -8.45800434 17.5602601 -8.5625 14.67578125 C-8.62566406 13.78288895 -8.68882813 12.88999664 -8.75390625 11.970047 C-8.81686673 9.40433051 -8.79544022 7.44335833 -8 5 C-5.58580717 2.73224327 -3.02451774 1.31730508 0 0 Z " fill="#5E09DC" transform="translate(111,33)"/>
<path d="M0 0 C2.78818403 1.10230532 5.20511861 2.383242 7.6875 4.0625 C6.6975 4.3925 5.7075 4.7225 4.6875 5.0625 C3.945 4.546875 3.2025 4.03125 2.4375 3.5 C-0.38245269 1.65373341 -0.38245269 1.65373341 -4.125 2.875 C-5.176875 3.266875 -6.22875 3.65875 -7.3125 4.0625 C-6.8175 4.68125 -6.3225 5.3 -5.8125 5.9375 C-4.3125 8.0625 -4.3125 8.0625 -4.3125 10.0625 C-4.9725 10.0625 -5.6325 10.0625 -6.3125 10.0625 C-6.6425 10.7225 -6.9725 11.3825 -7.3125 12.0625 C-7.6425 10.7425 -7.9725 9.4225 -8.3125 8.0625 C-10.9525 8.3925 -13.5925 8.7225 -16.3125 9.0625 C-12.10032246 4.50731126 -6.31988164 0.11924305 0 0 Z " fill="#5E0FD5" transform="translate(67.3125,59.9375)"/>
<path d="M0 0 C0.66 0.33 1.32 0.66 2 1 C2 1.66 2 2.32 2 3 C4.31 3.33 6.62 3.66 9 4 C9.33 4.99 9.66 5.98 10 7 C10.66 7 11.32 7 12 7 C12 7.66 12 8.32 12 9 C8.13829248 7.93803043 5.23977979 6.53653689 2 4.25 C-1.25523937 2.11733541 -1.25523937 2.11733541 -5.1875 2.5 C-7.07310295 3.50565491 -8.92857211 4.56980562 -10.75 5.6875 C-11.4925 6.120625 -12.235 6.55375 -13 7 C-13.66 6.67 -14.32 6.34 -15 6 C-14.01 5.67 -13.02 5.34 -12 5 C-12 4.34 -12 3.68 -12 3 C-7.78389753 0.59079859 -4.86758823 -0.44250802 0 0 Z " fill="#5A14C7" transform="translate(173,34)"/>
<path d="M0 0 C0.66 0.33 1.32 0.66 2 1 C1.09325024 1.98835723 0.17410978 2.96535481 -0.75 3.9375 C-1.26046875 4.48277344 -1.7709375 5.02804688 -2.296875 5.58984375 C-4.19378076 7.16044692 -5.59701161 7.58731286 -8 8 C-8 8.66 -8 9.32 -8 10 C-12.455 10.495 -12.455 10.495 -17 11 C-13.90430393 7.90430393 -10.69870921 5.89270311 -6.9375 3.75 C-6.30005859 3.37359375 -5.66261719 2.9971875 -5.00585938 2.609375 C-3.3733501 1.67356357 -1.68928489 0.82894277 0 0 Z " fill="#5B0FCE" transform="translate(192,106)"/>
<path d="M0 0 C0 0.66 0 1.32 0 2 C-6.75 6 -6.75 6 -9 6 C-9 6.66 -9 7.32 -9 8 C-11.64 8.66 -14.28 9.32 -17 10 C-17 10.66 -17 11.32 -17 12 C-19.31 12.66 -21.62 13.32 -24 14 C-21.76118156 11.56952479 -19.47483712 9.95575471 -16.62109375 8.30078125 C-15.78255859 7.81416016 -14.94402344 7.32753906 -14.08007812 6.82617188 C-13.20802734 6.32666016 -12.33597656 5.82714844 -11.4375 5.3125 C-10.56158203 4.80138672 -9.68566406 4.29027344 -8.78320312 3.76367188 C-2.25582026 0 -2.25582026 0 0 0 Z " fill="#5B15C8" transform="translate(158,7)"/>
<path d="M0 0 C0.66 0.33 1.32 0.66 2 1 C1.5 3.375 1.5 3.375 0 6 C-4.10799541 7.88207719 -7.67796768 8.33731045 -12 7 C-10.04754815 5.80285445 -8.08785003 4.61751926 -6.125 3.4375 C-5.03445312 2.77621094 -3.94390625 2.11492187 -2.8203125 1.43359375 C-1.88960937 0.96050781 -0.95890625 0.48742187 0 0 Z " fill="#5E0CD5" transform="translate(99,160)"/>
<path d="M0 0 C-2.95105384 1.7004792 -5.91190122 3.38311093 -8.875 5.0625 C-9.71675781 5.54783203 -10.55851562 6.03316406 -11.42578125 6.53320312 C-12.23144531 6.98759766 -13.03710938 7.44199219 -13.8671875 7.91015625 C-14.61081543 8.33433838 -15.35444336 8.75852051 -16.12060547 9.19555664 C-17.05090576 9.5937561 -17.05090576 9.5937561 -18 10 C-18.66 9.67 -19.32 9.34 -20 9 C-19 7 -19 7 -16 5 C-14.68 5 -13.36 5 -12 5 C-11.67 4.01 -11.34 3.02 -11 2 C-9.2578125 1.015625 -9.2578125 1.015625 -7.125 0.25 C-6.42632812 -0.01296875 -5.72765625 -0.2759375 -5.0078125 -0.546875 C-3 -1 -3 -1 0 0 Z " fill="#560ED1" transform="translate(55,102)"/>
<path d="M0 0 C6.93 3.96 6.93 3.96 14 8 C11.45297384 9.27351308 10.5717055 8.80191925 7.875 8.0625 C7.15054688 7.86785156 6.42609375 7.67320312 5.6796875 7.47265625 C5.12539063 7.31667969 4.57109375 7.16070312 4 7 C3.67 5.68 3.34 4.36 3 3 C1.68 3 0.36 3 -1 3 C-0.67 2.01 -0.34 1.02 0 0 Z " fill="#580DD0" transform="translate(30,158)"/>
<path d="M0 0 C3.3 0.33 6.6 0.66 10 1 C10.66 2.98 11.32 4.96 12 7 C7.69235185 5.43358249 3.93828536 3.31663844 0 1 C0 0.67 0 0.34 0 0 Z " fill="#5F0DD5" transform="translate(30,193)"/>
<path d="M0 0 C2.64 0 5.28 0 8 0 C5.63202009 2.61724095 3.10399646 4.32861729 0 6 C-0.66 6 -1.32 6 -2 6 C-2.33 4.68 -2.66 3.36 -3 2 C-2.01 2 -1.02 2 0 2 C0 1.34 0 0.68 0 0 Z " fill="#5F0ED7" transform="translate(177,145)"/>
<path d="M0 0 C4.62 0.66 9.24 1.32 14 2 C13.01 2.99 12.02 3.98 11 5 C6.60851363 4.80906581 3.57059172 3.52041769 0 1 C0 0.67 0 0.34 0 0 Z " fill="#560ED1" transform="translate(161,149)"/>
<path d="M0 0 C0 0.99 0 1.98 0 3 C-3.08888522 5.05925681 -3.70935927 5.2390374 -7.1875 5.125 C-9.0746875 5.063125 -9.0746875 5.063125 -11 5 C-11.33 4.34 -11.66 3.68 -12 3 C-11.278125 3.061875 -10.55625 3.12375 -9.8125 3.1875 C-5.93304926 2.92886995 -3.69320587 0 0 0 Z " fill="#5611D0" transform="translate(75,175)"/>
<path d="M0 0 C1.32 0.33 2.64 0.66 4 1 C2.04480616 2.17192047 0.0857461 3.3373929 -1.875 4.5 C-2.96554688 5.1496875 -4.05609375 5.799375 -5.1796875 6.46875 C-8 8 -8 8 -10 8 C-10 7.34 -10 6.68 -10 6 C-3.375 2 -3.375 2 0 2 C0 1.34 0 0.68 0 0 Z " fill="#5814C5" transform="translate(154,41)"/>
<path d="M0 0 C0 1.65 0 3.3 0 5 C0.99 5.33 1.98 5.66 3 6 C2.01 6.495 2.01 6.495 1 7 C-1.4750171 5.88568235 -3.67883419 4.41849022 -6 3 C-6 2.34 -6 1.68 -6 1 C-3.92446352 0.4465236 -2.15634036 0 0 0 Z " fill="#5B0FD0" transform="translate(158,142)"/>
<path d="M0 0 C0.33 0.66 0.66 1.32 1 2 C0.34 2 -0.32 2 -1 2 C-1.33 3.65 -1.66 5.3 -2 7 C-4.97 6.505 -4.97 6.505 -8 6 C-5.63379989 3.38472619 -3.057952 1.73559438 0 0 Z " fill="#5A11CE" transform="translate(111,33)"/>
<path d="M0 0 C0 0.99 0 1.98 0 3 C-5.45769231 6.10096154 -5.45769231 6.10096154 -8.203125 5.58984375 C-8.79609375 5.39519531 -9.3890625 5.20054688 -10 5 C-8.71186658 4.16121545 -7.41936744 3.32913217 -6.125 2.5 C-5.40570312 2.0359375 -4.68640625 1.571875 -3.9453125 1.09375 C-2 0 -2 0 0 0 Z " fill="#5C13CE" transform="translate(18,88)"/>
<path d="M0 0 C3.31562557 0.55260426 6.15062207 1.16825705 9 3 C9.33 3.99 9.66 4.98 10 6 C6.40992874 4.66654496 3.20429093 3.1056769 0 1 C0 0.67 0 0.34 0 0 Z " fill="#5C13C6" transform="translate(46,202)"/>
<path d="M0 0 C3.31562557 0.55260426 6.15062207 1.16825705 9 3 C9.33 3.99 9.66 4.98 10 6 C6.40992874 4.66654496 3.20429093 3.1056769 0 1 C0 0.67 0 0.34 0 0 Z " fill="#5D14C8" transform="translate(20,187)"/>
<path d="M0 0 C0.66 0.33 1.32 0.66 2 1 C0.76265016 2.03613033 -0.49044637 3.05347802 -1.75 4.0625 C-2.79414062 4.91521484 -2.79414062 4.91521484 -3.859375 5.78515625 C-6 7 -6 7 -8.265625 6.68359375 C-8.83796875 6.45800781 -9.4103125 6.23242188 -10 6 C-8.3811004 4.96951963 -6.75467511 3.95085322 -5.125 2.9375 C-4.22007813 2.36902344 -3.31515625 1.80054687 -2.3828125 1.21484375 C-1.20332031 0.61349609 -1.20332031 0.61349609 0 0 Z " fill="#6016C4" transform="translate(37,76)"/>
<path d="M0 0 C2.31 0.66 4.62 1.32 7 2 C5.75 3.5625 5.75 3.5625 4 5 C1.8125 4.6875 1.8125 4.6875 0 4 C0 2.68 0 1.36 0 0 Z " fill="#6009E0" transform="translate(130,51)"/>
<path d="M0 0 C-1.45537568 0.83848804 -2.91440373 1.67063934 -4.375 2.5 C-5.59316406 3.19609375 -5.59316406 3.19609375 -6.8359375 3.90625 C-9 5 -9 5 -11 5 C-11 4.01 -11 3.02 -11 2 C-9.73392393 1.46770674 -8.46189588 0.94955456 -7.1875 0.4375 C-6.47980469 0.14746094 -5.77210937 -0.14257812 -5.04296875 -0.44140625 C-3 -1 -3 -1 0 0 Z " fill="#5A15C3" transform="translate(55,102)"/>
<path d="M0 0 C3.3125 0.1875 3.3125 0.1875 7 1 C8.9375 3.5625 8.9375 3.5625 10 6 C6.40992874 4.66654496 3.20429093 3.1056769 0 1 C0 0.67 0 0.34 0 0 Z " fill="#5C17CB" transform="translate(1,176)"/>
<path d="M0 0 C4.75 0.875 4.75 0.875 7 2 C7 2.66 7 3.32 7 4 C7.99 4.33 8.98 4.66 10 5 C9.01 5.495 9.01 5.495 8 6 C6.0546875 5.0390625 6.0546875 5.0390625 3.875 3.625 C3.15054688 3.16351563 2.42609375 2.70203125 1.6796875 2.2265625 C1.12539062 1.82179687 0.57109375 1.41703125 0 1 C0 0.67 0 0.34 0 0 Z " fill="#5A17C6" transform="translate(192,47)"/>
<path d="M0 0 C2.475 0.495 2.475 0.495 5 1 C5 1.66 5 2.32 5 3 C5.66 3 6.32 3 7 3 C7 3.66 7 4.32 7 5 C4.0625 4.1875 4.0625 4.1875 1 3 C0.67 2.01 0.34 1.02 0 0 Z " fill="#5D0FD1" transform="translate(178,38)"/>
<path d="M0 0 C-0.66 1.65 -1.32 3.3 -2 5 C-3.65 4.67 -5.3 4.34 -7 4 C-3.17391304 0 -3.17391304 0 0 0 Z " fill="#5F0DCE" transform="translate(165,3)"/>
</svg>
