<?xml version="1.0" encoding="UTF-8"?>
<svg version="1.1" xmlns="http://www.w3.org/2000/svg" width="377" height="281">
<path d="M0 0 C0.66 0 1.32 0 2 0 C2.11861893 0.8325531 2.23723785 1.6651062 2.35945129 2.52288818 C3.49093013 10.46348184 4.6231256 18.40397295 5.75607777 26.34435654 C6.33817167 30.42417848 6.92001176 34.50403626 7.5012207 38.58398438 C11.16365181 64.30472286 11.16365181 64.30472286 15 90 C15.67809723 90.06597885 16.35619446 90.1319577 17.05484009 90.19993591 C17.94891571 90.28791946 18.84299133 90.37590302 19.76416016 90.46655273 C20.64850739 90.55315659 21.53285461 90.63976044 22.44400024 90.72898865 C25.76857442 91.08149155 29.06730403 91.57818443 32.375 92.0625 C57.34117226 95.3039977 78.88179734 91.04213292 100.3984375 77.75 C100.92695313 77.5025 101.45546875 77.255 102 77 C102.66 77.33 103.32 77.66 104 78 C94.51633598 86.53053196 83.36823273 92.3618383 72 98 C73.92199219 98.12955078 73.92199219 98.12955078 75.8828125 98.26171875 C91.27294797 99.44798574 103.62712799 102.14752784 116 112 C116.57234375 112.40992188 117.1446875 112.81984375 117.734375 113.2421875 C125.1521754 118.78641976 129.32435383 127.05398821 131 136 C132.66492037 148.6205075 127.20272152 160.91360361 120 171 C105.14311147 189.51522695 84.63600647 202.90685602 61 207 C31.6101008 208.90638605 6.6552162 201.20244986 -20.93554688 192.0330658 C-22.87789449 191.38831864 -24.82157987 190.74776261 -26.765625 190.1081543 C-29.20691561 189.30199851 -31.64462492 188.48489346 -34.078125 187.65551758 C-35.17640625 187.29224365 -36.2746875 186.92896973 -37.40625 186.5546875 C-38.36853516 186.22968262 -39.33082031 185.90467773 -40.32226562 185.56982422 C-43.33156093 184.92944354 -45.09347934 185.01391883 -48 186 C-49.63692685 187.32547379 -49.63692685 187.32547379 -50.91015625 189.10546875 C-51.41869141 189.75225586 -51.92722656 190.39904297 -52.45117188 191.06542969 C-53.2487793 192.11585449 -53.2487793 192.11585449 -54.0625 193.1875 C-55.2186591 194.65604566 -56.37623994 196.123473 -57.53515625 197.58984375 C-58.40551514 198.70141846 -58.40551514 198.70141846 -59.29345703 199.83544922 C-73.38563167 217.70972967 -92.0854155 239.40127936 -116.20703125 242.26171875 C-126.23655567 243.02025421 -135.79371431 242.78499889 -144.046875 236.421875 C-149.10354832 231.78310857 -151.6418809 227.45645287 -152.34765625 220.64453125 C-152.83550474 208.3732654 -149.88856256 199.64058036 -141.6875 190.625 C-128.6049173 176.95289619 -110.90080037 168.5545999 -91.78523254 167.92732239 C-89.27921735 167.91769782 -86.7753446 167.93972032 -84.26953125 167.97265625 C-82.39648615 167.98529234 -80.52343919 167.99765404 -78.65039062 168.00976562 C-75.72072423 168.03464968 -72.79115661 168.06274192 -69.86157227 168.09594727 C-67.01838547 168.12611559 -64.17532679 168.14390345 -61.33203125 168.16015625 C-60.01788994 168.18034569 -60.01788994 168.18034569 -58.67720032 168.20094299 C-57.8592247 168.20432175 -57.04124908 168.2077005 -56.19848633 168.21118164 C-55.12429192 168.22236778 -55.12429192 168.22236778 -54.02839661 168.23377991 C-51.62251824 167.95649389 -50.05284101 167.27309266 -48 166 C-46.63195533 163.72553093 -46.63195533 163.72553093 -45.640625 160.9921875 C-45.24746094 160.00605469 -44.85429687 159.01992187 -44.44921875 158.00390625 C-44.05347656 156.97136719 -43.65773438 155.93882812 -43.25 154.875 C-42.83878906 153.83472656 -42.42757812 152.79445312 -42.00390625 151.72265625 C-40.99019277 149.15301046 -39.98954592 146.5790278 -39 144 C-40.65845913 144.2869156 -42.31683105 144.5743412 -43.97485352 144.86376953 C-45.4815715 145.12677602 -46.98858336 145.38810321 -48.49584961 145.64794922 C-52.66916975 146.37685824 -56.81979854 147.1599668 -60.9609375 148.0546875 C-82.41077983 152.61852782 -106.35787547 155.74532668 -126.375 144.73046875 C-132.8522739 140.46048015 -138.97229316 134.7078049 -141 127 C-142.31485915 116.53121668 -140.53779626 109.32296991 -134.4609375 100.85546875 C-122.87879568 86.50129772 -104.07403721 79.71729538 -86.22265625 77.68359375 C-82.48392073 77.39244377 -78.74585545 77.17034207 -75 77 C-74.25137695 76.96455078 -73.50275391 76.92910156 -72.73144531 76.89257812 C-54.95231583 76.17761929 -37.5698011 78.59291484 -20 81 C-19.87093262 79.99694824 -19.74186523 78.99389648 -19.60888672 77.96044922 C-19.05843828 74.11959853 -18.19682186 70.39907244 -17.2578125 66.6328125 C-17.08877411 65.95378876 -16.91973572 65.27476501 -16.74557495 64.57516479 C-16.38924597 63.14782045 -16.03115847 61.72091405 -15.67138672 60.29443359 C-15.12851956 58.13897445 -14.59318017 55.98174461 -14.05859375 53.82421875 C-12.30079288 46.7838696 -10.43417895 39.8432578 -8 33 C-7.67 33 -7.34 33 -7 33 C-6.25986136 50.29046111 -8.52138075 66.93312439 -11 84 C-7.37 84.66 -3.74 85.32 0 86 C-0.2165625 84.34871094 -0.2165625 84.34871094 -0.4375 82.6640625 C-1.9910978 69.33189687 -2.19810631 56.09358064 -2.1875 42.6875 C-2.18858765 41.34803314 -2.18858765 41.34803314 -2.18969727 39.98150635 C-2.18885751 30.81622294 -2.06959714 21.67158343 -1.55078125 12.51953125 C-1.51228561 11.83026047 -1.47378998 11.14098969 -1.43412781 10.43083191 C-1.20778151 6.87833134 -0.79595797 3.47057711 0 0 Z M-118 97 C-123.6566385 104.82399183 -124.93777871 111.33536297 -124 121 C-121.74531402 128.87490323 -116.66839354 134.43130632 -110 139 C-91.61242621 148.55378457 -70.29266626 143.86080674 -51.28222656 138.85351562 C-49.0119732 138.26315519 -46.72514541 137.73436172 -44.42871094 137.25585938 C-38.26254038 135.91925309 -38.26254038 135.91925309 -33.46435547 132.14013672 C-32.31376867 129.45314103 -31.65414377 126.85119466 -31 124 C-30.63208217 122.66585301 -30.25723555 121.33360507 -29.87695312 120.00292969 C-28.59900465 115.47750804 -27.42144569 110.92893585 -26.25 106.375 C-25.83522931 104.78239729 -25.41986918 103.18994798 -25.00390625 101.59765625 C-23.99580417 97.73350455 -22.99568646 93.8673686 -22 90 C-38.88580817 85.17693515 -55.56094491 82.62014483 -73.125 82.5 C-74.39182617 82.48171143 -75.65865234 82.46342285 -76.96386719 82.44458008 C-91.50719146 82.53878245 -107.41306524 86.41306524 -118 97 Z M-13 92 C-15.59970165 101.10961029 -18.13745959 110.23124646 -20.375 119.4375 C-20.55450195 120.15220459 -20.73400391 120.86690918 -20.91894531 121.60327148 C-21.70829607 124.92505559 -22.10182412 126.69452764 -21 130 C-17.99707017 128.92467549 -14.99826418 127.83825885 -12 126.75 C-11.16082031 126.44964844 -10.32164062 126.14929688 -9.45703125 125.83984375 C-4.09416655 123.8859318 0.94177402 121.64620155 6 119 C4.54706382 107.39289342 4.54706382 107.39289342 2 96 C-1.2811302 93.81257986 -3.33084356 93.45557194 -7.1875 92.875 C-8.81751953 92.62363281 -8.81751953 92.62363281 -10.48046875 92.3671875 C-11.72763672 92.18542969 -11.72763672 92.18542969 -13 92 Z M17 99 C17.14148989 100.6045556 17.28835686 102.20863767 17.4375 103.8125 C17.51871094 104.70582031 17.59992188 105.59914063 17.68359375 106.51953125 C17.93489767 109.12743559 17.93489767 109.12743559 19 112 C23.55315948 111.38188466 27.28459767 109.53234107 31.3125 107.4375 C31.95767578 107.10814453 32.60285156 106.77878906 33.26757812 106.43945312 C34.84785228 105.63175745 36.42432105 104.81662387 38 104 C38 103.34 38 102.68 38 102 C35.6263603 101.49265716 33.25142575 100.99397614 30.875 100.5 C30.20984375 100.35691406 29.5446875 100.21382813 28.859375 100.06640625 C24.83943578 99.2387717 21.10095101 98.84669342 17 99 Z M33 115.5 C31.93007812 115.87954834 30.86015625 116.25909668 29.7578125 116.65014648 C28.26894531 117.21004272 28.26894531 117.21004272 26.75 117.78125 C25.41195312 118.2772168 25.41195312 118.2772168 24.046875 118.78320312 C21.88149518 119.81067628 21.88149518 119.81067628 21.15405273 121.81152344 C20.96907625 124.43930341 21.28594343 126.64512145 21.78515625 129.234375 C22.08160034 130.78970947 22.08160034 130.78970947 22.3840332 132.37646484 C22.60792725 133.48973145 22.83182129 134.60299805 23.0625 135.75 C23.29219482 136.90580566 23.52188965 138.06161133 23.75854492 139.25244141 C26.92020309 154.86186576 30.25410226 170.31898882 36.0625 185.1875 C36.37872314 186.00718262 36.69494629 186.82686523 37.02075195 187.67138672 C38.963455 192.38389901 40.9802566 195.68773144 45 199 C57.93763009 203.31254336 73.48519851 198.73523465 85.3125 193.3125 C91.38602033 190.07165649 96.18955073 185.88561254 101 181 C101.66 180.33871094 102.32 179.67742187 103 178.99609375 C110.98991237 170.47237258 115.75072872 159.42536942 116.09765625 147.69921875 C115.58820174 137.1249313 112.4644512 127.69626645 105 120 C92.90072686 109.5965305 80.94456751 106.13100027 65.18945312 106.83398438 C54.04858821 107.6787422 43.41996125 111.73184764 33 115.5 Z M3 128 C3.06993164 128.54897949 3.13986328 129.09795898 3.21191406 129.66357422 C3.55955073 132.40051431 3.9047118 135.13776264 4.25 137.875 C4.38277344 138.91825439 4.51554688 139.96150879 4.65234375 141.03637695 C5.39214334 146.91192978 6.09577292 152.78936394 6.73382568 158.67675781 C7.0672447 161.75282237 7.40895997 164.82795032 7.75036621 167.90313721 C7.91623965 169.42102112 8.07780944 170.93938175 8.23498535 172.45819092 C8.45832813 174.61278146 8.69651093 176.76529056 8.9375 178.91796875 C9.07027344 180.16344482 9.20304688 181.4089209 9.33984375 182.69213867 C10.13825624 186.69276398 11.35732662 189.77842765 14.69140625 192.2578125 C24.53231 197.18814274 24.53231 197.18814274 35 197 C34.443125 196.07703125 33.88625 195.1540625 33.3125 194.203125 C20.89251443 173.18215539 14.58233844 150.33073292 8 127 C5.0745356 126.7763932 5.0745356 126.7763932 3 128 Z M-9.125 132.25 C-10.20007813 132.66765625 -11.27515625 133.0853125 -12.3828125 133.515625 C-15.11671883 134.6893277 -15.11671883 134.6893277 -15.66023254 136.85232544 C-16.21955103 140.38778492 -16.042724 143.92628766 -15.94921875 147.4921875 C-15.9303511 148.31574738 -15.91148346 149.13930725 -15.89204407 149.98782349 C-15.85023085 151.72779297 -15.80550057 153.46769447 -15.75805664 155.20751953 C-15.68794265 157.85826515 -15.63351438 160.50902855 -15.58007812 163.16015625 C-15.53741724 164.85419109 -15.49382775 166.54820284 -15.44921875 168.2421875 C-15.43453049 169.02987518 -15.41984222 169.81756287 -15.40470886 170.62911987 C-15.26731896 175.07501761 -14.85411304 178.87792683 -13 183 C-10.10420618 185.37222995 -10.10420618 185.37222995 -6.4375 184.75 C-2.95407388 184.3141556 -2.95407388 184.3141556 -1 182 C-0.66898466 179.69661198 -0.66898466 179.69661198 -0.68115234 176.99951172 C-0.66128265 175.95858368 -0.64141296 174.91765564 -0.62094116 173.84518433 C-0.60938995 172.71807037 -0.59783875 171.59095642 -0.5859375 170.4296875 C-0.56657135 169.27832306 -0.5472052 168.12695862 -0.5272522 166.94070435 C-0.46732628 163.25221231 -0.42101874 159.56368928 -0.375 155.875 C-0.33683223 153.37889241 -0.29778122 150.88279815 -0.2578125 148.38671875 C-0.16161412 142.25793063 -0.07660494 136.12906262 0 130 C-3.54953261 130 -5.83397453 130.93358981 -9.125 132.25 Z M-26 140 C-27.72727091 142.89180344 -27.72727091 142.89180344 -29 146.3125 C-29.24637207 146.92480469 -29.49274414 147.53710938 -29.74658203 148.16796875 C-30.51697216 150.10506261 -31.26001439 152.05111259 -32 154 C-32.2484668 154.63599121 -32.49693359 155.27198242 -32.75292969 155.92724609 C-36.34457317 164.68956516 -36.34457317 164.68956516 -37 174 C-34.89294243 176.34117508 -33.53119178 176.90930872 -30.4375 177.4375 C-27.94045466 177.2241225 -27.94045466 177.2241225 -26.44799805 175.48925781 C-24.45907948 172.0701019 -23.97623041 168.58767329 -23.39453125 164.734375 C-23.20113411 163.54427826 -23.20113411 163.54427826 -23.00382996 162.33013916 C-22.59599643 159.80500684 -22.20405823 157.27770188 -21.8125 154.75 C-21.53815531 153.03368665 -21.26277634 151.31753829 -20.98632812 149.6015625 C-20.3122189 145.40285906 -19.65235039 141.20213674 -19 137 C-22.06590088 137 -23.55360338 138.19130738 -26 140 Z M-132.3046875 189.96484375 C-138.57718228 197.49472803 -139.18075372 205.43101024 -138.32226562 215.00878906 C-137.31978899 221.20287953 -133.47401518 225.8994616 -128.9375 230 C-122.45961213 234.41047685 -116.67189284 234.7342425 -109 234 C-100.33901802 232.1176958 -93.81555416 227.47374193 -87 222 C-86.34 221.48179687 -85.68 220.96359375 -85 220.4296875 C-80.46602112 216.72558869 -76.72791466 212.49920735 -73 208 C-72.51160645 207.41331543 -72.02321289 206.82663086 -71.52001953 206.22216797 C-61.62323613 195.33054078 -61.62323613 195.33054078 -54 183 C-54.29055044 180.81242439 -54.29055044 180.81242439 -55 179 C-57.66545164 178.3487817 -60.33219056 177.70392839 -63 177.0625 C-64.11568359 176.78889648 -64.11568359 176.78889648 -65.25390625 176.50976562 C-88.48262988 170.95507084 -115.06364965 171.29286956 -132.3046875 189.96484375 Z " fill="#BBA66C" transform="translate(203,21)"/>
<path d="M0 0 C0.33 0 0.66 0 1 0 C1.19877676 21.00917431 1.19877676 21.00917431 0 30 C-0.33 30 -0.66 30 -1 30 C-1.33 28.02 -1.66 26.04 -2 24 C-3.76462683 27.08809695 -4 28.23312136 -4 32 C-4.99 32 -5.98 32 -7 32 C-7.66 33.32 -8.32 34.64 -9 36 C-7.74116908 28.35942746 -6.02981806 20.95292858 -3.9375 13.5 C-3.66873047 12.52546875 -3.39996094 11.5509375 -3.12304688 10.546875 C-2.14233038 7.00553465 -1.16218683 3.4865605 0 0 Z " fill="#B6A36B" transform="translate(195,54)"/>
<path d="M0 0 C6.93 0 13.86 0 21 0 C21 0.99 21 1.98 21 3 C21.495 4.485 21.495 4.485 22 6 C22.99 6.33 23.98 6.66 25 7 C23.89076172 6.99476318 22.78152344 6.98952637 21.63867188 6.98413086 C17.49382342 6.96592828 13.34897846 6.95451257 9.20410156 6.94506836 C7.41568404 6.94006286 5.62727057 6.93325645 3.83886719 6.92456055 C1.25715126 6.91232834 -1.32451021 6.90673372 -3.90625 6.90234375 C-5.09112 6.89460182 -5.09112 6.89460182 -6.29992676 6.88670349 C-11.28751558 6.88620793 -16.06202819 7.28930585 -21 8 C-20.34 7.67 -19.68 7.34 -19 7 C-19 6.01 -19 5.02 -19 4 C-24.445 5.485 -24.445 5.485 -30 7 C-30 6.34 -30 5.68 -30 5 C-28.27318563 4.49193553 -26.54342021 3.99389533 -24.8125 3.5 C-23.36810547 3.08234375 -23.36810547 3.08234375 -21.89453125 2.65625 C-19.14654124 2.03322392 -16.80401584 1.87697188 -14 2 C-14.99 2.495 -14.99 2.495 -16 3 C-16 3.66 -16 4.32 -16 5 C-5.11 4.67 5.78 4.34 17 4 C17.33 3.01 17.66 2.02 18 1 C12.06 1 6.12 1 0 1 C0 0.67 0 0.34 0 0 Z " fill="#AF9D6D" transform="translate(128,98)"/>
<path d="M0 0 C0.66 0.33 1.32 0.66 2 1 C-3.95104189 6.35294722 -10.20373079 10.45293587 -17.1875 14.3125 C-17.94724121 14.73257324 -18.70698242 15.15264648 -19.48974609 15.58544922 C-23.90675668 17.98116492 -28.34964077 20.0967404 -33 22 C-31.76736651 18.30209954 -30.79947549 18.0645154 -27.4375 16.3125 C-26.61121094 15.87550781 -25.78492188 15.43851563 -24.93359375 14.98828125 C-24.29550781 14.66214844 -23.65742188 14.33601563 -23 14 C-23.33 13.34 -23.66 12.68 -24 12 C-22.85402344 11.46890625 -21.70804687 10.9378125 -20.52734375 10.390625 C-18.9973224 9.67724081 -17.4673786 8.96369027 -15.9375 8.25 C-15.18533203 7.90195313 -14.43316406 7.55390625 -13.65820312 7.1953125 C-10.02135283 5.49496691 -6.50665619 3.74476607 -3.06640625 1.671875 C-1.54853516 0.84429687 -1.54853516 0.84429687 0 0 Z " fill="#B3A16D" transform="translate(305,98)"/>
<path d="M0 0 C1.65 0.33 3.3 0.66 5 1 C5.33 3.31 5.66 5.62 6 8 C6.99 8.33 7.98 8.66 9 9 C9.33 13.62 9.66 18.24 10 23 C7.8614515 20.8614515 7.57344937 19.86724686 7 17 C6.01 17.33 5.02 17.66 4 18 C4 29.88 4 41.76 4 54 C3.67 54 3.34 54 3 54 C2.97499455 48.68384124 2.95699773 43.36771788 2.94506836 38.05151367 C2.94008708 36.24877322 2.93329964 34.4460367 2.92456055 32.64331055 C2.87607539 22.3730128 2.95991641 12.22846575 4 2 C2.35 2.33 0.7 2.66 -1 3 C-0.67 2.01 -0.34 1.02 0 0 Z " fill="#B09B68" transform="translate(199,149)"/>
<path d="M0 0 C0 2.31 0 4.62 0 7 C-5.75 9 -5.75 9 -8 9 C-8.33 6.36 -8.66 3.72 -9 1 C-6.04335481 -0.4783226 -3.25770263 -0.06032783 0 0 Z " fill="#C1AC73" transform="translate(64,221)"/>
<path d="M0 0 C0.66 0 1.32 0 2 0 C2.33 4.62 2.66 9.24 3 14 C2.34 14 1.68 14 1 14 C1.33 15.32 1.66 16.64 2 18 C1.01 18.33 0.02 18.66 -1 19 C-1.02714735 16.77090129 -1.04646254 14.54170633 -1.0625 12.3125 C-1.07990234 10.45044922 -1.07990234 10.45044922 -1.09765625 8.55078125 C-1.01478673 5.53764546 -0.70839449 2.91724661 0 0 Z " fill="#B9A878" transform="translate(203,21)"/>
<path d="M0 0 C-0.99 0.33 -1.98 0.66 -3 1 C-4.22520264 4.00847418 -4.22520264 4.00847418 -5 7 C-5.598125 6.814375 -6.19625 6.62875 -6.8125 6.4375 C-9.16408762 5.77906313 -9.16408762 5.77906313 -12 7 C-12 7.66 -12 8.32 -12 9 C-13.65 9 -15.3 9 -17 9 C-16.360625 8.71125 -15.72125 8.4225 -15.0625 8.125 C-12.5040533 6.72948362 -12.23846376 5.56209315 -11.125 2.9375 C-8.76284651 -1.13065323 -4.17889835 -0.07884714 0 0 Z " fill="#C0AC78" transform="translate(165,157)"/>
<path d="M0 0 C8.58 0 17.16 0 26 0 C26 0.66 26 1.32 26 2 C27.32 1.67 28.64 1.34 30 1 C30 1.99 30 2.98 30 4 C29.15695312 3.7834375 29.15695312 3.7834375 28.296875 3.5625 C18.59588407 1.41994986 8.87387549 1.8259258 -1 2 C-0.67 1.34 -0.34 0.68 0 0 Z " fill="#B3A172" transform="translate(263,127)"/>
<path d="M0 0 C1.90608098 3.21182149 2.22266247 5.53882603 2.125 9.25 C2.10695313 10.14203125 2.08890625 11.0340625 2.0703125 11.953125 C2.03550781 12.96632812 2.03550781 12.96632812 2 14 C0.68 13.01 -0.64 12.02 -2 11 C-2.99 11.99 -3.98 12.98 -5 14 C-5.66 13.67 -6.32 13.34 -7 13 C-7 11.68 -7 10.36 -7 9 C-5.68 9 -4.36 9 -3 9 C-3 8.34 -3 7.68 -3 7 C-2.01 6.34 -1.02 5.68 0 5 C0.25030977 2.41619823 0.25030977 2.41619823 0 0 Z " fill="#B3A068" transform="translate(332,153)"/>
<path d="M0 0 C0.33 0 0.66 0 1 0 C1.06721779 3.36088959 1.09403831 6.5021501 0.46875 9.8125 C-0.04518543 13.30726095 0.1148897 16.36213228 0.4375 19.875 C0.53933594 21.02742188 0.64117187 22.17984375 0.74609375 23.3671875 C0.82988281 24.23601562 0.91367187 25.10484375 1 26 C-2.63588431 22.36411569 -2.16322496 18.59591235 -2.1875 13.6875 C-2.20167969 12.39199219 -2.21585938 11.09648437 -2.23046875 9.76171875 C-2.00819391 6.1337412 -1.32059222 3.3667272 0 0 Z " fill="#B0A177" transform="translate(53,224)"/>
<path d="M0 0 C2.45823172 3.68734758 3.01242616 6.69699971 4 11 C3.01 10.67 2.02 10.34 1 10 C0.67 6.7 0.34 3.4 0 0 Z M-5 10 C-4.01 10.33 -3.02 10.66 -2 11 C-1.01 10.67 -0.02 10.34 1 10 C0.34 12.64 -0.32 15.28 -1 18 C-3.15377564 15.37801226 -4.40072174 13.35595828 -5 10 Z " fill="#B3A06F" transform="translate(234,192)"/>
<path d="M0 0 C0.66 0 1.32 0 2 0 C1.67 0.99 1.34 1.98 1 3 C0.67 2.01 0.34 1.02 0 0 Z M-2 3 C-1.34 3 -0.68 3 0 3 C0.12375 3.639375 0.2475 4.27875 0.375 4.9375 C0.684375 5.9584375 0.684375 5.9584375 1 7 C1.66 7.33 2.32 7.66 3 8 C3.33 6.68 3.66 5.36 4 4 C5.32 4.33 6.64 4.66 8 5 C7.67 5.66 7.34 6.32 7 7 C6.01 7 5.02 7 4 7 C4 7.66 4 8.32 4 9 C3.236875 8.835 2.47375 8.67 1.6875 8.5 C-1.03596236 7.90854604 -1.03596236 7.90854604 -4 8 C-3.125 4.125 -3.125 4.125 -2 3 Z " fill="#C4AD77" transform="translate(325,153)"/>
<path d="M0 0 C-0.33 2.31 -0.66 4.62 -1 7 C-2.65 7.33 -4.3 7.66 -6 8 C-6.25 5.6875 -6.25 5.6875 -6 3 C-3.95575462 1.02389614 -2.8823175 0 0 0 Z " fill="#BFA868" transform="translate(188,150)"/>
<path d="M0 0 C0.66 0.33 1.32 0.66 2 1 C1.4225 1.680625 0.845 2.36125 0.25 3.0625 C-1.46549691 5.30217652 -2.70474045 7.23061879 -4 9.6875 C-5.89101536 12.8194942 -6.61112376 13.91071835 -10 15 C-8.59601721 10.89889238 -6.62912962 8.01910841 -3.875 4.6875 C-3.15054688 3.80449219 -2.42609375 2.92148438 -1.6796875 2.01171875 C-1.12539062 1.34785156 -0.57109375 0.68398437 0 0 Z " fill="#B4A173" transform="translate(74,116)"/>
<path d="M0 0 C0.66 0.33 1.32 0.66 2 1 C2 2.65 2 4.3 2 6 C0.02 6 -1.96 6 -4 6 C-4 6.66 -4 7.32 -4 8 C-4.99 8 -5.98 8 -7 8 C-5.50902342 4.2047869 -3.24299151 2.38957269 0 0 Z " fill="#C0A66B" transform="translate(302,205)"/>
<path d="M0 0 C1.11003253 3.3300976 0.9343162 3.97843441 -0.25 7.125 C-0.62898437 8.18074219 -0.62898437 8.18074219 -1.015625 9.2578125 C-2 11 -2 11 -5 12 C-5.75 9.8125 -5.75 9.8125 -6 7 C-4.1875 4.1875 -4.1875 4.1875 -2 2 C-1.34 2 -0.68 2 0 2 C0 1.34 0 0.68 0 0 Z " fill="#B1A167" transform="translate(173,167)"/>
<path d="M0 0 C0.33 0 0.66 0 1 0 C1.33774332 2.22850277 1.6700187 4.45783467 2 6.6875 C2.185625 7.92886719 2.37125 9.17023438 2.5625 10.44921875 C2.92100411 13.35886371 3.08942256 16.07700022 3 19 C2.8453125 18.0409375 2.8453125 18.0409375 2.6875 17.0625 C2.460625 16.381875 2.23375 15.70125 2 15 C1.01 14.67 0.02 14.34 -1 14 C-1.027193 12.41676312 -1.04648306 10.83338938 -1.0625 9.25 C-1.07410156 8.36828125 -1.08570313 7.4865625 -1.09765625 6.578125 C-1.00826198 4.2181162 -0.66912821 2.25501476 0 0 Z " fill="#B1A26F" transform="translate(211,71)"/>
<path d="M0 0 C0.33 0 0.66 0 1 0 C1.33 4.95 1.66 9.9 2 15 C-2 10 -2 10 -2.20703125 7.578125 C-2.07683594 6.80984375 -1.94664063 6.0415625 -1.8125 5.25 C-1.63654297 4.08210937 -1.63654297 4.08210937 -1.45703125 2.890625 C-1 1 -1 1 0 0 Z " fill="#B4A274" transform="translate(78,130)"/>
<path d="M0 0 C1.27079593 2.54159187 0.71020908 3.31698792 0 6 C0 7.32 0 8.64 0 10 C-0.99 10.495 -0.99 10.495 -2 11 C-2.33 9.68 -2.66 8.36 -3 7 C-4.98 7.99 -4.98 7.99 -7 9 C-6.02180976 7.68677212 -5.0424189 6.37443848 -4.0625 5.0625 C-3.51722656 4.33160156 -2.97195312 3.60070312 -2.41015625 2.84765625 C-1 1 -1 1 0 0 Z " fill="#AEA070" transform="translate(132,225)"/>
<path d="M0 0 C0.66 0.66 1.32 1.32 2 2 C0.02 2.99 -1.96 3.98 -4 5 C-4 7.97 -4 10.94 -4 14 C-6.00531963 9.98936074 -6.28227139 8.32816129 -6 4 C-4.60804085 1.2160817 -2.84424221 1.02101003 0 0 Z " fill="#B4A071" transform="translate(229,137)"/>
<path d="M0 0 C0.33 0 0.66 0 1 0 C1 6.27 1 12.54 1 19 C0.67 19 0.34 19 0 19 C-0.09087891 17.96939453 -0.09087891 17.96939453 -0.18359375 16.91796875 C-0.26738281 16.01691406 -0.35117188 15.11585937 -0.4375 14.1875 C-0.51871094 13.29417969 -0.59992188 12.40085937 -0.68359375 11.48046875 C-0.93489767 8.87256441 -0.93489767 8.87256441 -2 6 C-1.0625 2.8125 -1.0625 2.8125 0 0 Z " fill="#A39463" transform="translate(195,54)"/>
<path d="M0 0 C0 0.66 0 1.32 0 2 C0.99 2.33 1.98 2.66 3 3 C1.02 3.99 1.02 3.99 -1 5 C-1 4.34 -1 3.68 -1 3 C-1.99 3 -2.98 3 -4 3 C-4.33 3.99 -4.66 4.98 -5 6 C-5.66 6 -6.32 6 -7 6 C-6.67 4.35 -6.34 2.7 -6 1 C-3.92446352 0.4465236 -2.15634036 0 0 0 Z " fill="#C5B069" transform="translate(325,162)"/>
<path d="M0 0 C0.66 0.33 1.32 0.66 2 1 C0.73608512 2.00873016 -0.53640883 3.00671822 -1.8125 4 C-2.87404297 4.8353125 -2.87404297 4.8353125 -3.95703125 5.6875 C-6 7 -6 7 -9 7 C-9 6.34 -9 5.68 -9 5 C-7.54735962 4.1361871 -6.0876837 3.28419546 -4.625 2.4375 C-3.40683594 1.72400391 -3.40683594 1.72400391 -2.1640625 0.99609375 C-1.44992187 0.66738281 -0.73578125 0.33867188 0 0 Z " fill="#ADA27D" transform="translate(305,98)"/>
<path d="M0 0 C0.85712696 2.39995548 1.22584094 3.51605512 0.125 5.875 C-0.24625 6.57625 -0.6175 7.2775 -1 8 C-1.38290462 9.99110401 -1.72604615 11.99100513 -2 14 C-3.32 13.67 -4.64 13.34 -6 13 C-5.47599609 11.96939453 -5.47599609 11.96939453 -4.94140625 10.91796875 C-4.48636719 10.01691406 -4.03132812 9.11585938 -3.5625 8.1875 C-3.11003906 7.29417969 -2.65757812 6.40085938 -2.19140625 5.48046875 C-0.9168395 2.96000522 -0.9168395 2.96000522 0 0 Z " fill="#B1A071" transform="translate(160,175)"/>
<path d="M0 0 C0.33 0 0.66 0 1 0 C1.66 4.29 2.32 8.58 3 13 C3.66 13 4.32 13 5 13 C5 13.66 5 14.32 5 15 C3.125 14.375 3.125 14.375 1 13 C-1.25593933 8.38069565 -0.99390182 4.96950912 0 0 Z " fill="#AF9F73" transform="translate(219,120)"/>
<path d="M0 0 C5.94 0.33 11.88 0.66 18 1 C18 1.33 18 1.66 18 2 C12.06 2.33 6.12 2.66 0 3 C0 2.01 0 1.02 0 0 Z " fill="#B29F6E" transform="translate(103,170)"/>
<path d="M0 0 C0.80824219 0.11085937 1.61648437 0.22171875 2.44921875 0.3359375 C3.37154297 0.47902344 3.37154297 0.47902344 4.3125 0.625 C1.27724514 2.64850324 0.11823798 2.94624018 -3.375 3.25 C-4.18324219 3.32476562 -4.99148437 3.39953125 -5.82421875 3.4765625 C-6.43910156 3.52554688 -7.05398437 3.57453125 -7.6875 3.625 C-7.6875 2.965 -7.6875 2.305 -7.6875 1.625 C-4.33422361 -0.61051759 -3.78006343 -0.54783528 0 0 Z " fill="#AC9F71" transform="translate(160.6875,162.375)"/>
<path d="M0 0 C0.99 0 1.98 0 3 0 C3 0.66 3 1.32 3 2 C3.99 1.67 4.98 1.34 6 1 C6.433125 1.45375 6.86625 1.9075 7.3125 2.375 C9.10798342 4.20024334 9.10798342 4.20024334 12 6 C7.01208429 5.52496041 3.9767259 4.0298864 0 1 C0 0.67 0 0.34 0 0 Z " fill="#AFA071" transform="translate(59,256)"/>
<path d="M0 0 C0.99 0.33 1.98 0.66 3 1 C3 5.29 3 9.58 3 14 C2.67 14 2.34 14 2 14 C-0.29612756 4.58997722 -0.29612756 4.58997722 0 0 Z " fill="#AFA073" transform="translate(205,117)"/>
<path d="M0 0 C2.62901288 1.52206009 4.84365964 2.84365964 7 5 C6.01 5.66 5.02 6.32 4 7 C4 6.01 4 5.02 4 4 C2.35 4.33 0.7 4.66 -1 5 C-0.67 3.35 -0.34 1.7 0 0 Z " fill="#B4A06E" transform="translate(149,201)"/>
<path d="M0 0 C1.31223496 3.93670488 0.24296256 6.12488144 -1 10 C-1.66 10 -2.32 10 -3 10 C-2.25 3.375 -2.25 3.375 0 0 Z " fill="#B4A273" transform="translate(186,92)"/>
<path d="M0 0 C0.33 0.66 0.66 1.32 1 2 C1.99 2.33 2.98 2.66 4 3 C4 3.33 4 3.66 4 4 C0.37 3.67 -3.26 3.34 -7 3 C-7 2.67 -7 2.34 -7 2 C-4.69 1.34 -2.38 0.68 0 0 Z " fill="#B2A06D" transform="translate(227,117)"/>
<path d="M0 0 C0.99 0.33 1.98 0.66 3 1 C3 1.99 3 2.98 3 4 C1.1875 4.625 1.1875 4.625 -1 5 C-1.99 4.34 -2.98 3.68 -4 3 C-2.68 2.67 -1.36 2.34 0 2 C0 1.34 0 0.68 0 0 Z " fill="#C0A969" transform="translate(87,110)"/>
<path d="M0 0 C3 2 3 2 3.6875 4.125 C3.790625 4.74375 3.89375 5.3625 4 6 C1.08482708 4.92598892 -0.77810176 4.22189824 -3 2 C-2.01 2 -1.02 2 0 2 C0 1.34 0 0.68 0 0 Z " fill="#B3A06F" transform="translate(298,130)"/>
<path d="M0 0 C2.31 0.33 4.62 0.66 7 1 C3.93882432 3.62386487 3.26826873 4 -1 4 C-0.67 2.68 -0.34 1.36 0 0 Z " fill="#B1A266" transform="translate(231,218)"/>
<path d="M0 0 C0.66 0.33 1.32 0.66 2 1 C1.67 1.99 1.34 2.98 1 4 C1.66 4.33 2.32 4.66 3 5 C2.34 5 1.68 5 1 5 C1 5.66 1 6.32 1 7 C0.01 6.67 -0.98 6.34 -2 6 C-1.34 4.02 -0.68 2.04 0 0 Z " fill="#BFAA6F" transform="translate(307,199)"/>
<path d="M0 0 C1.65 0.33 3.3 0.66 5 1 C2.64046906 3.35953094 1.22104383 3.49141413 -2 4 C-1.34 2.68 -0.68 1.36 0 0 Z " fill="#AFA167" transform="translate(98,106)"/>
</svg>
